<svg xmlns="http://www.w3.org/2000/svg" version="1.1" xmlns:xlink="http://www.w3.org/1999/xlink" xmlns:svgjs="http://svgjs.dev/svgjs" width="1000" height="1000" viewBox="0 0 1000 1000"><rect width="1000" height="1000" fill="#000000"></rect><g transform="matrix(0.7,0,0,0.7,149.57575757575756,282.1265587044535)"><svg viewBox="0 0 396 247" data-background-color="#fdf8f1" preserveAspectRatio="xMidYMid meet" height="623" width="1000" xmlns="http://www.w3.org/2000/svg" xmlns:xlink="http://www.w3.org/1999/xlink"><g id="tight-bounds" transform="matrix(1,0,0,1,0.2400000000000091,-0.09999999999999432)"><svg viewBox="0 0 395.52 247.2" height="247.2" width="395.52"><g><svg></svg></g><g><svg viewBox="0 0 395.52 247.2" height="247.2" width="395.52"><mask id="7b873a88-1131-486c-bbdb-17eba774eb3d"><rect width="640" height="400" fill="white"></rect><rect width="348.05760000000004" height="84.99642763872357" fill="black" y="81.10178618063821" x="23.731199999999973" id="transform-me"></rect></mask><g transform="matrix(1,0,0,1,39.55199999999999,94.7319117731309)"><svg viewBox="0 0 316.416 57.73617645373818" height="57.73617645373818" width="316.416"><g><svg viewBox="0 0 316.416 57.73617645373818" height="57.73617645373818" width="316.416"><g><svg viewBox="0 0 316.416 57.73617645373818" height="57.73617645373818" width="316.416"><g id="textblocktransform"><svg viewBox="0 0 316.416 57.73617645373818" height="57.73617645373818" width="316.416" id="textblock"><g><svg viewBox="0 0 316.416 57.73617645373818" height="57.73617645373818" width="316.416"><g transform="matrix(1,0,0,1,0,0)"><svg width="316.416" viewBox="-12.5 -31.25 174.54 31.85" height="57.73617645373818" data-palette-color="#fa4238"><path d="M32.55-19.05L31.25-11.8 21.75-11.8 21.1-8 32.75-8 31.35 0 10.2 0 15.7-31.25 36.6-31.25 34-23.25 23.75-23.25 23.05-19.05 32.55-19.05ZM9.1-2.4L8.7-0.15-12.5-2.4 9.1-2.4ZM10.8-12.05L10.4-9.8-10.8-12.05 10.8-12.05ZM11.65-16.85L11.25-14.6-9.95-16.85 11.65-16.85ZM12.5-21.65L12.1-19.4-9.1-21.65 12.5-21.65ZM13.3-26.45L12.95-24.2-8.25-26.45 13.3-26.45ZM9.95-7.25L9.55-5-11.65-7.25 9.95-7.25ZM14.15-31.25L13.75-29-7.4-31.25 14.15-31.25ZM64.05-7.35L62.75 0 46.5 0 51.1-26.45 59.9-26.45 56.55-7.35 64.05-7.35ZM45.25-2.4L44.85-0.15 23.65-2.4 45.25-2.4ZM46.95-12.05L46.55-9.8 25.35-12.05 46.95-12.05ZM47.8-16.85L47.4-14.6 26.2-16.85 47.8-16.85ZM48.65-21.65L48.25-19.4 27.05-21.65 48.65-21.65ZM49.45-26.45L49.1-24.2 27.9-26.45 49.45-26.45ZM46.1-7.25L45.7-5 24.5-7.25 46.1-7.25ZM83.6 0L74.85 0 79.45-26.45 88.25-26.45 83.6 0ZM73.6-2.4L73.2-0.15 52-2.4 73.6-2.4ZM75.3-12.05L74.9-9.8 53.7-12.05 75.3-12.05ZM76.15-16.85L75.75-14.6 54.55-16.85 76.15-16.85ZM77-21.65L76.6-19.4 55.4-21.65 77-21.65ZM77.8-26.45L77.45-24.2 56.25-26.45 77.8-26.45ZM74.45-7.25L74.05-5 52.85-7.25 74.45-7.25ZM124.14 0L115.39 0 115.19-4.05 108.89-4.05 107.34 0 98.69 0 109.79-26.45 122.19-26.45 124.14 0ZM111.54-11.2L115.19-11.2 115.19-18.8 114.49-18.8 111.54-11.2ZM98.04-2.4L97.09-0.2 76.59-2.4 98.04-2.4ZM100.09-7.25L99.14-5.05 78.64-7.25 100.09-7.25ZM102.09-12.05L101.19-9.85 80.69-12.05 102.09-12.05ZM104.14-16.85L103.19-14.65 82.74-16.85 104.14-16.85ZM106.14-21.65L105.24-19.45 84.79-21.65 106.14-21.65ZM108.14-26.45L107.24-24.3 86.84-26.45 108.14-26.45ZM135.99-0.15L115.09-2.4 136.69-2.4 135.99-0.15ZM118.94-21.65L140.49-21.65Q140.19-20.85 139.84-19.4L139.84-19.4 118.94-21.65ZM139.24-15L139.24-15 139.24-14.6 118.04-16.85 139.34-16.85Q139.24-15.65 139.24-15ZM138.29-7.25L137.59-5.05 116.74-7.25 138.29-7.25ZM122.39-26.45L143.94-26.45Q142.59-25.45 141.89-24.35L141.89-24.35 122.39-26.45ZM119.99-12.05L139.69-12.05Q140.14-10.75 141.14-9.8L141.14-9.8 119.99-12.05ZM162.04-25.9L159.64-18.6Q156.24-19.4 153.84-19.4 151.44-19.4 150.29-19.25L150.29-19.25 150.04-17.8 152.54-17.5Q160.59-16.45 160.59-10.85L160.59-10.85Q160.59-10.2 160.29-8.43 159.99-6.65 159.29-5 158.59-3.35 157.52-2.33 156.44-1.3 155.42-0.68 154.39-0.05 152.79 0.2L152.79 0.2Q150.29 0.6 146.12 0.6 141.94 0.6 137.69-0.55L137.69-0.55 140.14-7.95Q144.04-6.85 146.97-6.85 149.89-6.85 151.09-7L151.09-7 151.34-8.6 148.19-8.95Q144.14-9.4 142.44-10.85 140.74-12.3 140.74-15L140.74-15Q140.74-16 140.99-17.5L140.99-17.5Q141.99-22.85 144.59-24.9 147.19-26.95 152.52-26.95 157.84-26.95 162.04-25.9L162.04-25.9Z" opacity="1" transform="matrix(1,0,0,1,0,0)" fill="#ffffff" class="wordmark-text-0" data-fill-palette-color="primary" id="text-0"></path></svg></g></svg></g></svg></g></svg></g></svg></g></svg></g><g mask="url(#7b873a88-1131-486c-bbdb-17eba774eb3d)"><g transform="matrix(8.518486449043207, 0, 0, 8.518486449043207, 1, 36.89458567841369)"><svg xmlns="http://www.w3.org/2000/svg" xmlns:xlink="http://www.w3.org/1999/xlink" version="1.1" x="0" y="0" viewBox="1.971 12.886 46.196 20.357000000000003" enable-background="new 0 0 50 50" xml:space="preserve" height="20.357000000000003" width="46.196" class="icon-none" data-fill-palette-color="accent" id="none"><g fill="#fa4238" data-fill-palette-color="accent"><path fill="#ffffff" d="M14.132 33.243h21.89V12.886h-21.89V33.243zM16.251 15.009h17.648v16.115H16.251V15.009z" data-fill-palette-color="accent"></path><path fill="#ffffff" d="M10.554 16.246c-0.414-0.414-1.086-0.414-1.499 0l-7.084 7.083 7.084 7.084c0.208 0.207 0.479 0.311 0.75 0.311 0.271 0 0.543-0.106 0.752-0.311 0.412-0.413 0.412-1.086 0-1.499l-5.586-5.585 5.586-5.584C10.97 17.329 10.97 16.658 10.554 16.246z" data-fill-palette-color="accent"></path><path fill="#ffffff" d="M39.583 16.101c-0.413 0.415-0.413 1.085 0 1.5l5.583 5.583-5.583 5.583c-0.413 0.416-0.413 1.09 0 1.501 0.208 0.209 0.481 0.31 0.751 0.31 0.272 0 0.543-0.104 0.751-0.31l7.082-7.083-7.082-7.083C40.669 15.686 39.997 15.686 39.583 16.101z" data-fill-palette-color="accent"></path></g></svg></g></g></svg></g><defs></defs></svg><rect width="395.52" height="247.2" fill="none" stroke="none" visibility="hidden"></rect></g></svg></g></svg>