<svg xmlns="http://www.w3.org/2000/svg" version="1.1" xmlns:xlink="http://www.w3.org/1999/xlink" xmlns:svgjs="http://svgjs.dev/svgjs" width="1000" height="1000" viewBox="0 0 1000 1000"><rect width="1000" height="1000" fill="#000000"></rect><g transform="matrix(0.7,0,0,0.7,149.57575757575756,282.1265587044535)"><svg viewBox="0 0 396 247" data-background-color="#fdf8f1" preserveAspectRatio="xMidYMid meet" height="623" width="1000" xmlns="http://www.w3.org/2000/svg" xmlns:xlink="http://www.w3.org/1999/xlink"><g id="tight-bounds" transform="matrix(1,0,0,1,0.2400000000000091,-0.09999999999999432)"><svg viewBox="0 0 395.52 247.2" height="247.2" width="395.52"><g><svg></svg></g><g><svg viewBox="0 0 395.52 247.2" height="247.2" width="395.52"><mask id="77ffaa67-a9fe-49f2-a0a2-3a986c7f04b7"><rect width="640" height="400" fill="white"></rect><rect width="299.0684928" height="254.74118208" fill="black" y="-3.7705910399999993" x="48.22575359999999" id="transform-me"></rect></mask><g transform="matrix(1,0,0,1,61.81977599999999,37.08)"><svg viewBox="0 0 271.880448 173.04" height="173.04" width="271.880448"><g><svg viewBox="0 0 271.880448 173.04" height="173.04" width="271.880448"><g><svg viewBox="0 0 271.880448 173.04" height="173.04" width="271.880448"><g id="textblocktransform"><svg viewBox="0 0 271.880448 173.04" height="173.04" width="271.880448" id="textblock"><g><svg viewBox="0 0 271.880448 173.04" height="173.04" width="271.880448"><g transform="matrix(1,0,0,1,0,0)"><svg width="271.880448" viewBox="-12.5 -31.25 49.1 31.25" height="173.04" data-palette-color="#fa4238"><path d="M32.55-19.05L31.25-11.8 21.75-11.8 21.1-8 32.75-8 31.35 0 10.2 0 15.7-31.25 36.6-31.25 34-23.25 23.75-23.25 23.05-19.05 32.55-19.05ZM9.1-2.4L8.7-0.15-12.5-2.4 9.1-2.4ZM10.8-12.05L10.4-9.8-10.8-12.05 10.8-12.05ZM11.65-16.85L11.25-14.6-9.95-16.85 11.65-16.85ZM12.5-21.65L12.1-19.4-9.1-21.65 12.5-21.65ZM13.3-26.45L12.95-24.2-8.25-26.45 13.3-26.45ZM9.95-7.25L9.55-5-11.65-7.25 9.95-7.25ZM14.15-31.25L13.75-29-7.4-31.25 14.15-31.25Z" opacity="1" transform="matrix(1,0,0,1,0,0)" fill="#ffffff" class="wordmark-text-0" data-fill-palette-color="primary" id="text-0"></path></svg></g></svg></g></svg></g></svg></g></svg></g></svg></g><g mask="url(#77ffaa67-a9fe-49f2-a0a2-3a986c7f04b7)"><g transform="matrix(8.518486449043207, 0, 0, 8.518486449043207, 1, 36.89458567841369)"><svg xmlns="http://www.w3.org/2000/svg" xmlns:xlink="http://www.w3.org/1999/xlink" version="1.1" x="0" y="0" viewBox="1.971 12.886 46.196 20.357000000000003" enable-background="new 0 0 50 50" xml:space="preserve" height="20.357000000000003" width="46.196" class="icon-none" data-fill-palette-color="accent" id="none"><g fill="#fa4238" data-fill-palette-color="accent"><path fill="#ffffff" d="M14.132 33.243h21.89V12.886h-21.89V33.243zM16.251 15.009h17.648v16.115H16.251V15.009z" data-fill-palette-color="accent"></path><path fill="#ffffff" d="M10.554 16.246c-0.414-0.414-1.086-0.414-1.499 0l-7.084 7.083 7.084 7.084c0.208 0.207 0.479 0.311 0.75 0.311 0.271 0 0.543-0.106 0.752-0.311 0.412-0.413 0.412-1.086 0-1.499l-5.586-5.585 5.586-5.584C10.97 17.329 10.97 16.658 10.554 16.246z" data-fill-palette-color="accent"></path><path fill="#ffffff" d="M39.583 16.101c-0.413 0.415-0.413 1.085 0 1.5l5.583 5.583-5.583 5.583c-0.413 0.416-0.413 1.09 0 1.501 0.208 0.209 0.481 0.31 0.751 0.31 0.272 0 0.543-0.104 0.751-0.31l7.082-7.083-7.082-7.083C40.669 15.686 39.997 15.686 39.583 16.101z" data-fill-palette-color="accent"></path></g></svg></g></g></svg></g><defs></defs></svg><rect width="395.52" height="47.2" fill="none" stroke="none" visibility="hidden"></rect></g></svg></g></svg>
